PathFileType	4	(X/Y/Z)	./resultDataOpenSim/trcMotMarkerGrf/sub06/qtm-04-07.trc
DataRate	CameraRate	NumFrames	NumMarkers	Units	OrigDataRate	OrigDataStartFrame	OrigNumFrames
250.000000	250.000000	14	24	m	250.000000	70	554
Frame#	Time	L.Toe.Tip			R.Toe.Tip			L.Ankle.Lat			R.Ankle.Lat			L.Ankle.Med			R.Ankle.Med			L.Heel			R.Heel			L.Knee.Lat			R.Knee.Lat			L.Knee.Med			R.Knee.Med			L.Thigh.Upper			R.Thigh.Upper			L.ASIS			R.ASIS			V.Sacral			L.Acromium			R.Acromium			C7			L.Elbow			R.Elbow			L.Wrist.Lat			R.Wrist.Lat
		X1	Y1	Z1	X2	Y2	Z2	X3	Y3	Z3	X4	Y4	Z4	X5	Y5	Z5	X6	Y6	Z6	X7	Y7	Z7	X8	Y8	Z8	X9	Y9	Z9	X10	Y10	Z10	X11	Y11	Z11	X12	Y12	Z12	X13	Y13	Z13	X14	Y14	Z14	X15	Y15	Z15	X16	Y16	Z16	X17	Y17	Z17	X18	Y18	Z18	X19	Y19	Z19	X20	Y20	Z20	X21	Y21	Z21	X22	Y22	Z22	X23	Y23	Z23	X24	Y24	Z24

70	0.276	-1.3616293	0.078659135	-0.070492525	-0.81600929	0.035242487	0.072303249	-1.3555608	0.20784159	-0.10122109	-0.95128849	0.059599651	0.093042186	-1.3314754	0.21099521	-0.021867919	-0.9308372	0.081982755	0.0076047541	-1.3970109	0.26655841	-0.050316396	-1.00545	0.038793526	0.029595492	-1.021519	0.38248581	-0.14274799	-0.87713429	0.44052107	0.1362901	-1.0132866	0.36957874	-0.022484211	-0.91488978	0.43215256	0.01076538	-1.0568723	0.77604194	-0.14163867	-1.0092155	0.79329161	0.20043216	-0.97513019	0.82505529	-0.10819647	-0.93239122	0.84370079	0.13236963	-1.140171	0.91102467	0.041296638	-1.0257049	1.3209081	-0.15110515	-1.0118071	1.2970522	0.2121789	-1.0955173	1.3504488	0.034936568	-1.058547	1.0011288	-0.21017127	-1.1082105	0.99446032	0.27646261	-0.89184704	0.81995559	-0.21624054	-0.98178565	0.79049165	0.3067364
71	0.28	-1.3464639	0.079133316	-0.070776855	-0.81609143	0.035257584	0.072436629	-1.3427276	0.20851598	-0.10156701	-0.9514966	0.05957924	0.093124873	-1.3188245	0.2122478	-0.02225003	-0.93085346	0.082083091	0.0077869885	-1.3856238	0.26635363	-0.05108805	-1.005493	0.038861433	0.029668376	-1.009975	0.38436894	-0.14303473	-0.87545441	0.44036929	0.13679798	-1.0026384	0.37164229	-0.02229148	-0.91328282	0.43241576	0.011070287	-1.0506592	0.77760267	-0.14108868	-1.004176	0.79440664	0.20101196	-0.96927311	0.82651438	-0.10773971	-0.92683374	0.84479893	0.13337948	-1.1343313	0.91241213	0.041363386	-1.0206085	1.3224958	-0.15086922	-1.0062806	1.298664	0.21237431	-1.0901177	1.3518929	0.03520889	-1.0544377	1.0029252	-0.20950032	-1.1012039	0.99557755	0.27706781	-0.88912191	0.82064245	-0.21651212	-0.97297469	0.79271889	0.30712264
72	0.284	-1.3310385	0.079455419	-0.07110366	-0.81617271	0.035278048	0.072573182	-1.3297224	0.20903866	-0.1019562	-0.95168681	0.059579419	0.093215241	-1.3061361	0.213316	-0.022617783	-0.93086899	0.082185221	0.0079778274	-1.3741536	0.26598485	-0.051683138	-1.0055345	0.038933167	0.029756546	-0.9984724	0.38636895	-0.14324705	-0.87385698	0.44023693	0.13726965	-0.99163432	0.3737374	-0.022080111	-0.91168405	0.43268907	0.011380583	-1.0443403	0.77917749	-0.14050626	-0.99954606	0.79549964	0.20143967	-0.9634136	0.82802795	-0.10728606	-0.92092418	0.84595609	0.13446658	-1.1286717	0.91379947	0.041491476	-1.0155067	1.3241096	-0.15062561	-1.0007523	1.3003006	0.21255397	-1.084725	1.3533587	0.035479218	-1.0503864	1.0047696	-0.20886393	-1.0941387	0.99676078	0.27778633	-0.88645251	0.82138111	-0.21680818	-0.96413789	0.79499786	0.3074764
73	0.288	-1.3153537	0.079642156	-0.071461153	-0.81625722	0.035304272	0.072708071	-1.3166277	0.20933751	-0.10236154	-0.95187296	0.059584395	0.093322373	-1.2934636	0.21415926	-0.022971676	-0.93089084	0.082297799	0.0081703271	-1.3625945	0.26547959	-0.052256235	-1.0055767	0.039005596	0.029849721	-0.98699064	0.38848346	-0.14341056	-0.87233888	0.44012263	0.13770595	-0.98013367	0.37594102	-0.021910195	-0.91010781	0.43295961	0.011695808	-1.0379849	0.78079727	-0.13996968	-0.99516057	0.79654359	0.20180927	-0.95755268	0.82959388	-0.10682879	-0.9149534	0.84715185	0.13559632	-1.123248	0.91508377	0.041821581	-1.0103988	1.3257473	-0.15036814	-0.99521027	1.3019556	0.21271624	-1.0793358	1.3548407	0.035745421	-1.0463939	1.006645	-0.20826446	-1.0869923	0.99802438	0.27865406	-0.88381953	0.8221697	-0.21712306	-0.95527025	0.79732048	0.30779568
74	0.292	-1.2994082	0.079698281	-0.071857394	-0.81634908	0.03533367	0.072834891	-1.3035439	0.20934973	-0.10273627	-0.95206878	0.059581776	0.093446774	-1.2807549	0.2147514	-0.023316066	-0.93093043	0.08242133	0.0083585046	-1.3508869	0.26471953	-0.052932455	-1.0056243	0.039076687	0.029937183	-0.97552388	0.39070607	-0.14353378	-0.87089714	0.44002506	0.13810764	-0.96835242	0.37825585	-0.021766201	-0.90861468	0.43319948	0.012002988	-1.0316637	0.78248761	-0.139535	-0.99090288	0.79755319	0.20217106	-0.9516736	0.83121133	-0.10635703	-0.90956198	0.84834314	0.13667347	-1.1180275	0.9162469	0.042360296	-1.0052822	1.3274019	-0.15009972	-0.98964737	1.3036258	0.21286456	-1.0739416	1.3563362	0.036006334	-1.0424593	1.0085382	-0.20769975	-1.0798228	0.99934741	0.27957408	-0.88119193	0.82301149	-0.21745296	-0.9464195	0.79969631	0.30808271
75	0.296	-1.2832022	0.079628243	-0.07231965	-0.81645071	0.035362047	0.072950312	-1.2905049	0.20905461	-0.10304388	-0.95227048	0.059570934	0.093580745	-1.2678775	0.21508677	-0.023672342	-0.93099221	0.082551158	0.0085405773	-1.339016	0.26360405	-0.053561275	-1.0056806	0.039145528	0.030016763	-0.96408135	0.3930301	-0.14359816	-0.86952894	0.43994289	0.1384754	-0.95658552	0.38062898	-0.021629336	-0.90725686	0.43338918	0.012290166	-1.025393	0.78424144	-0.13919327	-0.98686914	0.79854783	0.20248577	-0.9457333	0.83288586	-0.10586196	-0.90523503	0.84950034	0.13760396	-1.1127842	0.91742363	0.042860466	-1.0001543	1.3290584	-0.14983028	-0.98406344	1.3053073	0.21300515	-1.0685352	1.357842	0.03626431	-1.0385771	1.0104434	-0.20716315	-1.0727389	1.0006859	0.28038026	-0.8785526	0.82390673	-0.21780104	-0.93764171	0.80212937	0.30833914
76	0.3	-1.2667395	0.079450589	-0.072883359	-0.81656131	0.035387645	0.073054886	-1.2774311	0.20849205	-0.10329557	-0.95246731	0.059560054	0.093717111	-1.2547382	0.2151692	-0.024057774	-0.93107385	0.082685272	0.0087162775	-1.3270092	0.26213316	-0.054009333	-1.0057468	0.039211114	0.030091935	-0.95268005	0.39545111	-0.14358855	-0.86823157	0.43987482	0.13880984	-0.94495419	0.38304106	-0.021490189	-0.90606561	0.4335334	0.012542984	-1.01914	0.78603521	-0.13890216	-0.98318784	0.79951852	0.20272179	-0.93967626	0.83462038	-0.10533162	-0.90164904	0.85065446	0.13839773	-1.1072611	0.91878116	0.043018401	-0.99501679	1.3307032	-0.14956883	-0.97846432	1.3069973	0.21314001	-1.0631209	1.3593468	0.036523495	-1.03474	1.0123564	-0.20664556	-1.0657862	1.0020153	0.28101607	-0.87590274	0.82485208	-0.21816892	-0.92893469	0.80460842	0.30856412
77	0.304	-1.2500378	0.07918739	-0.073580777	-0.81667816	0.03541115	0.073151386	-1.2641965	0.20773048	-0.10354525	-0.95264842	0.059562262	0.093856805	-1.2414272	0.21500485	-0.024434381	-0.93117107	0.082827181	0.0088858871	-1.3148898	0.26034979	-0.054296025	-1.0058233	0.039269527	0.030167718	-0.94134132	0.39796221	-0.14351608	-0.86700208	0.4398195	0.1391117	-0.93342671	0.38552371	-0.021333943	-0.90511758	0.43364289	0.012743768	-1.0128638	0.78785455	-0.1386229	-0.97970538	0.80044328	0.20292347	-0.93354332	0.83640132	-0.10477717	-0.89794015	0.85187875	0.13916141	-1.1014831	0.9203084	0.042828735	-0.98987491	1.332332	-0.14931815	-0.97286181	1.3086961	0.21326415	-1.0577093	1.3608363	0.036787015	-1.030943	1.0142726	-0.20614026	-1.0589194	1.0033362	0.28155583	-0.87325389	0.82583952	-0.21855472	-0.92024442	0.80712072	0.30875665
78	0.308	-1.2331701	0.078836498	-0.07437037	-0.81679865	0.035431871	0.073243068	-1.2507489	0.20680618	-0.10383488	-0.95278813	0.059592908	0.09400546	-1.228217	0.21460937	-0.02471348	-0.93127869	0.082980627	0.0090506816	-1.302676	0.2582859	-0.054488691	-1.0059093	0.03931296	0.030249323	-0.93008806	0.40054593	-0.14339751	-0.86583709	0.43977548	0.13938191	-0.92195952	0.38810432	-0.021145924	-0.90444848	0.43372387	0.012900467	-1.0065274	0.78969112	-0.13829492	-0.97597523	0.80134506	0.20314866	-0.92754229	0.83819555	-0.10425202	-0.89365918	0.8532071	0.13996309	-1.0956965	0.92184297	0.042552097	-0.98473011	1.333944	-0.14907715	-0.96726131	1.3104006	0.21337173	-1.0523066	1.3623032	0.037054273	-1.0271797	1.0161905	-0.20564376	-1.0520873	1.0046541	0.28206873	-0.87061751	0.8268539	-0.21895821	-0.91152839	0.809662	0.30891532
79	0.312	-1.2162674	0.078362966	-0.075091476	-0.81692001	0.035448091	0.07333224	-1.2371222	0.20571179	-0.10415511	-0.95284711	0.059660027	0.094162126	-1.2153212	0.21400684	-0.024839848	-0.93139147	0.083140834	0.0092119702	-1.2903834	0.25594351	-0.054636376	-1.0060008	0.039340183	0.030333577	-0.91893486	0.40317781	-0.14323563	-0.86473304	0.43974131	0.13962151	-0.91057338	0.39077486	-0.020917052	-0.90390652	0.43379579	0.013057899	-1.0001107	0.79153101	-0.13785893	-0.97165222	0.80229563	0.20341097	-0.92183751	0.83997628	-0.10379267	-0.88899648	0.85459716	0.14077738	-1.0900465	0.92328195	0.042375019	-0.97957793	1.335537	-0.14884326	-0.96165925	1.3121017	0.21346264	-1.0469137	1.3637472	0.037322619	-1.0234312	1.0181047	-0.20513793	-1.0453074	1.0059714	0.28251693	-0.86799103	0.8278781	-0.21937779	-0.90278401	0.81223119	0.30903804
80	0.316	-1.1993704	0.077744058	-0.075645068	-0.81703806	0.035461511	0.073419011	-1.2233593	0.20443143	-0.10446751	-0.95281793	0.059749144	0.094308901	-1.2026251	0.21320803	-0.02485721	-0.93150418	0.083295944	0.0093708519	-1.2780204	0.25330898	-0.054784155	-1.0060925	0.039363801	0.030409343	-0.90785545	0.40584384	-0.14302034	-0.86368653	0.43971555	0.13983146	-0.89935901	0.39350339	-0.020649364	-0.90325317	0.4339001	0.013255594	-0.99364	0.79335689	-0.13735925	-0.96683478	0.80333019	0.20369542	-0.91631818	0.84175412	-0.10336602	-0.88430329	0.85596845	0.14155411	-1.0845131	0.92463912	0.042299124	-0.97441494	1.3371072	-0.14861279	-0.95605223	1.313789	0.21354096	-1.0415294	1.365169	0.037588217	-1.0196612	1.0200013	-0.20457012	-1.0386723	1.0072799	0.28274774	-0.86536219	0.82890192	-0.21980813	-0.89402861	0.81482376	0.30912236
81	0.32	-1.1823353	0.077016065	-0.076161021	-0.8171481	0.035477457	0.073501354	-1.2094777	0.20296493	-0.10475058	-0.95280365	0.059800959	0.094408534	-1.1897189	0.21220383	-0.024886102	-0.93161035	0.083439674	0.0095276273	-1.2655928	0.25039723	-0.055058222	-1.0061879	0.039390041	0.030479128	-0.89676046	0.40854987	-0.14272943	-0.86269439	0.43969683	0.14001261	-0.88840845	0.3962643	-0.020354324	-0.90241828	0.43406625	0.013492803	-0.98717723	0.79515958	-0.13694303	-0.9619424	0.80441211	0.20394644	-0.91072117	0.84356464	-0.10291817	-0.87972019	0.85727851	0.14227085	-1.0790493	0.92595268	0.042266755	-0.96924414	1.3386509	-0.14838206	-0.95043544	1.3154567	0.21360989	-1.0361537	1.3665646	0.037844585	-1.0158384	1.0218688	-0.20389118	-1.0322652	1.0085642	0.28263142	-0.86272798	0.82992286	-0.22024675	-0.88527807	0.81743278	0.30916723
82	0.324	-1.1649961	0.076246878	-0.076830983	-0.81724815	0.035500281	0.073577627	-1.1954824	0.20132585	-0.10500836	-0.95300086	0.059728254	0.094424591	-1.1762893	0.21098495	-0.025015256	-0.93170411	0.083576277	0.0096793046	-1.2530995	0.24725362	-0.055626315	-1.0062999	0.039408135	0.030562541	-0.88558972	0.41130507	-0.14234958	-0.86175355	0.43968379	0.14016577	-0.87769663	0.39907133	-0.020029069	-0.90160108	0.43426401	0.013736893	-0.98076575	0.79694698	-0.13672174	-0.95734717	0.80549239	0.20405879	-0.90484287	0.84543488	-0.10243353	-0.87504172	0.85858262	0.1429355	-1.0736398	0.92723886	0.042241039	-0.96407279	1.340162	-0.14814945	-0.94480364	1.3171039	0.21367055	-1.030788	1.3679266	0.038086581	-1.0119765	1.0237043	-0.20313909	-1.0260181	1.0098251	0.28229059	-0.86008962	0.83094334	-0.2206921	-0.87654138	0.82005351	0.30917475
83	0.328	-1.1473165	0.075488212	-0.077701753	-0.81734059	0.035530553	0.073650103	-1.1813751	0.19952603	-0.10524814	-0.9534688	0.059523369	0.094368553	-1.1624164	0.20955274	-0.025217946	-0.93178442	0.083713144	0.0098189331	-1.2405086	0.24390103	-0.05646848	-1.0064358	0.039412588	0.030675767	-0.87442111	0.41409992	-0.14190405	-0.86086096	0.43967508	0.14029172	-0.86708718	0.40196928	-0.019648436	-0.90105606	0.43442845	0.013965519	-0.97440893	0.79873689	-0.13670005	-0.95318039	0.80654759	0.20394205	-0.89860896	0.84737044	-0.10192525	-0.86991765	0.8599775	0.14357808	-1.0682838	0.92849926	0.042197065	-0.95890435	1.3416316	-0.14791838	-0.9391689	1.3187287	0.21372443	-1.025432	1.3692493	0.038315047	-1.0081325	1.0255062	-0.20243097	-1.019725	1.0110817	0.28207268	-0.85743029	0.83196808	-0.22113524	-0.86782061	0.82268399	0.30914697
